<svg xmlns="http://www.w3.org/2000/svg" viewBox="0 0 500 500"><g id="freepik--Background--inject-3"><path id="freepik--background--inject-3" d="M30.51,119.9c4.32.58,9.16-6.6,17-17,25-34.14,61.41-54.69,101-72.12,11-9.37-20.68-12.37-26.21-10.79-46,4.39-89.53,37.51-96.14,84.21C24.8,113.36,25.46,119.22,30.51,119.9Zm414.13,18.73C353.65,7.44,206-4.68,93.7,81.48-2.38,155.19,2.05,307.57,28,364.29c24.75,54.13,91.07,113,201.44,121.26,84.56,6.34,157.33-18.82,195.93-52.29C500.76,367.86,504.35,224.74,444.64,138.63Z" style="fill:#37474f"></path></g><g id="freepik--Shadow--inject-3"><ellipse id="freepik--shadow--inject-3" cx="255" cy="364.86" rx="170.03" ry="98.17" style="fill:#263238"></ellipse></g><g id="freepik--Steam--inject-3"><g id="freepik--steam--inject-3"><path d="M263.76,254.76c1.68-10.35-3-18.32-13.1-25.17-11.66-7.91-31-18.77-35.58-41.86-8.53-43.47,47.08-67.4,58.06-75.52,12.44-9.2,19.19-16.5,17.42-34.1,19.91,16.93,28,53.74-8.63,75.61-28.16,16.8-43.5,36.07-27.72,57C270.85,232.83,272.33,241.7,263.76,254.76Z" style="fill:#fff;opacity:0.2"></path><path d="M295.32,105.85c-1.33,13.45-17,22.86-27.63,29s-22.17,11.54-31.2,20.27c-7.63,7.38-13,17.71-12.74,28.68.45,17.35,10.77,26.72,21.1,31.84.41.2.68,0-.6-1-6-5-11.35-11.45-13.18-17.22-2.39-7.56-2.77-14.67-.8-21.09,3.79-12.34,13.82-20.76,24.34-27.46,15.75-10,40.42-21.26,41.15-43.06C295.77,105.34,295.35,105.59,295.32,105.85Z" style="fill:#fff;opacity:0.2"></path><path d="M267.66,44C282,62,280.38,87.8,259.11,101.65S204.52,131.93,205.3,159c-12.3-16.58-13.37-39.75,7.48-55.7,10.24-7.84,30.38-16.44,41.08-26.76C263.12,67.59,269.23,56.15,267.66,44Z" style="fill:#fff;opacity:0.2"></path></g></g><g id="freepik--Sparkles--inject-3"><g id="freepik--Shine--inject-3"><path d="M115.94,100.19c0,3.54-.08,6.94-5.19,7.74,5.39-.08,5,3.32,5.25,7.58.14-4.26.52-7.31,4.72-7.51C116.37,107.28,116.49,105.26,115.94,100.19Z" style="fill:#455a64"></path><path d="M431.27,159.75c0,3.53-.09,6.94-5.2,7.73,5.4-.07,5,3.33,5.25,7.59.15-4.26.52-7.32,4.73-7.52C431.7,166.83,431.81,164.81,431.27,159.75Z" style="fill:#455a64"></path><path d="M139.75,165.81c0,3.54-.09,6.94-5.2,7.74,5.4-.08,5,3.32,5.26,7.58.14-4.26.51-7.31,4.72-7.51C140.18,172.9,140.29,170.88,139.75,165.81Z" style="fill:#455a64"></path><path d="M35.55,242.65c0,2.47.06,4.84,3.62,5.39-3.76,0-3.47,2.32-3.66,5.28-.1-3-.36-5.09-3.29-5.23C35.25,247.59,35.17,246.18,35.55,242.65Z" style="fill:#ebebeb"></path><path d="M364.27,127.09c0,2.46.06,4.84,3.62,5.39-3.76,0-3.48,2.32-3.66,5.28-.1-3-.36-5.09-3.29-5.23C364,132,363.89,130.62,364.27,127.09Z" style="fill:#ebebeb"></path><path d="M66.38,216.13c0,3.54.09,7,5.21,7.75-5.41-.07-5,3.34-5.27,7.61-.14-4.27-.52-7.34-4.74-7.54C66,223.23,65.83,221.21,66.38,216.13Z" style="fill:#e0e0e0"></path><path d="M376.8,165.26c0,3.55.09,7,5.21,7.76-5.41-.08-5,3.33-5.26,7.6-.15-4.27-.52-7.33-4.74-7.53C376.37,172.36,376.26,170.34,376.8,165.26Z" style="fill:#e0e0e0"></path><path d="M323.66,50.05c0,3.55.09,7,5.21,7.75-5.41-.07-5,3.34-5.27,7.61-.14-4.27-.52-7.33-4.73-7.54C323.23,57.15,323.11,55.13,323.66,50.05Z" style="fill:#e0e0e0"></path><path d="M58.42,248.9C58,259,57,262.43,48.18,264c8.94.77,9.73,6.49,10.24,14.79.28-8.3,2.13-14.54,10.33-14.93C60.27,262.43,59.48,258.78,58.42,248.9Z" style="fill:#455a64"></path><path d="M353.13,139.34c-.51,11-1.58,14.78-11.19,16.47,9.76.85,10.62,7.09,11.19,16.17.3-9.08,2.33-15.89,11.28-16.32C355.15,154.13,354.29,150.14,353.13,139.34Z" style="fill:#455a64"></path><path d="M210.08,48.36c-.86,9.09-.43,12.88-9.54,14.2,9.11.62,9.06,6,9.54,13.81.27-7.79.46-13.09,8.69-13.81C210.54,61.36,211.08,57.63,210.08,48.36Z" style="fill:#455a64"></path><path d="M194.25,70.42c0,2.47-.06,4.84-3.62,5.39,3.76,0,3.48,2.32,3.66,5.29.1-3,.36-5.1,3.29-5.24C194.55,75.36,194.63,74,194.25,70.42Z" style="fill:#ebebeb"></path><path d="M156.79,140.06c-.46,10.09-1.44,13.53-10.24,15.08,8.93.77,9.72,6.49,10.24,14.79.28-8.3,2.13-14.54,10.33-14.94C158.64,153.59,157.85,149.94,156.79,140.06Z" style="fill:#e0e0e0"></path><path d="M419.59,245.54c.46,10.09,1.44,13.53,10.24,15.08-8.93.77-9.72,6.49-10.24,14.8-.28-8.31-2.13-14.55-10.33-14.94C417.74,259.07,418.53,255.42,419.59,245.54Z" style="fill:#e0e0e0"></path><path d="M443.05,270.22c.29,6.41.91,8.6,6.5,9.58-5.67.49-6.17,4.12-6.5,9.4-.18-5.28-1.35-9.24-6.56-9.49C441.87,278.82,442.38,276.5,443.05,270.22Z" style="fill:#455a64"></path><path d="M436.5,234.12c.16,3.49.5,4.68,3.55,5.22-3.09.27-3.37,2.24-3.55,5.12-.09-2.88-.73-5-3.57-5.17C435.86,238.8,436.14,237.54,436.5,234.12Z" style="fill:#455a64"></path></g></g><g id="freepik--Character--inject-3"><g id="freepik--character--inject-3"><g id="freepik--Arm--inject-3"><path d="M361.61,314.74c5.78-.25,9.09-.06,13.6,4.62s26.9,24.58,26.9,24.58l-5.68,20.24a49.73,49.73,0,0,1-9.24-4c-5.23-2.84-23.2-21-23.2-21Z" style="fill:#16A085"></path><path d="M361.61,314.74c5.78-.25,9.09-.06,13.6,4.62s26.9,24.58,26.9,24.58l-5.68,20.24a49.73,49.73,0,0,1-9.24-4c-5.23-2.84-23.2-21-23.2-21Z" style="opacity:0.1"></path><path d="M374.3,312.11c-1.3-1.28-2.84-2.74-2.36-3.71a17.16,17.16,0,0,1,2-3.22c.51-.5,1.42.2,1.73,1.14a6.17,6.17,0,0,1-.18,2.69Z" style="fill:#c8856a"></path><path d="M375.4,308.11c1.54-.8,3.53.07,4.25,2.53s3.12,9.17,1.32,11.19a3,3,0,0,1-3.77.84S372.15,309.82,375.4,308.11Z" style="fill:#e0e0e0"></path><path d="M386.25,312.94a3.73,3.73,0,0,0-1.63-2.61,44.29,44.29,0,0,0-4.14-3.49c-.8-.42-1.75.17-2.43.86s-2.08,2-2.23,2.72a3.8,3.8,0,0,0,.53,1.92l1.91,6.9s1.08.08,1.37-.38c-.09.35.66,1.14.82,1.16l.2,1.16s-.61,1.21-3.09.86-5.51.79-6.11,3,6.23,13.06,6.23,13.06a12.78,12.78,0,0,0,4.94-.72c3.53-1,5.88-5.09,5.88-5.09s-4.54-6.32-4.17-7.18,1.43-2.72,1.91-3.61.36-1.69.66-2.26a2.87,2.87,0,0,0,.38-2.65,5.33,5.33,0,0,0,.16-2.25A2.67,2.67,0,0,0,386.25,312.94Z" style="fill:#c8856a"></path><path d="M384,320.56c-1.05-.07-1.94-1.43-2.42-2.23s-1.39-.44-1.94.53c-.09.35.66,1.14.82,1.16l.2,1.16s-.61,1.21-3.09.86-5.51.79-6.11,3,6.23,13.06,6.23,13.06a12.78,12.78,0,0,0,4.94-.72c3.53-1,5.88-5.09,5.88-5.09s-4.54-6.32-4.17-7.18c.29-.69.82-1.62,1.52-2.89C386.19,321.6,385,320.64,384,320.56Z" style="fill:#af6152;opacity:0.5"></path><path d="M384.63,311.76a1.24,1.24,0,0,1-.63-.17l-.58-.31-1.1-.64a8.93,8.93,0,0,0-2.27-1,1.57,1.57,0,0,0-1.06.07,4.4,4.4,0,0,0-.91.79c-.57.62-1.1,1.3-1.69,1.94a15.32,15.32,0,0,1,1.37-2.21,4,4,0,0,1,1-1,2,2,0,0,1,1.44-.16,7.22,7.22,0,0,1,2.37,1.18c.36.24.7.51,1,.78A3.21,3.21,0,0,0,384.63,311.76Z" style="fill:#af6152"></path><path d="M384.59,314.61a.86.86,0,0,1-.58-.13,3.81,3.81,0,0,1-.52-.29l-1-.65a11.72,11.72,0,0,0-2-1.08,1.19,1.19,0,0,0-.92,0,5.72,5.72,0,0,0-.91.63l-1.81,1.49a13.83,13.83,0,0,1,1.53-1.81,4.91,4.91,0,0,1,.95-.77,1.64,1.64,0,0,1,1.34,0,7.93,7.93,0,0,1,2.06,1.25c.31.25.59.52.88.78A2.09,2.09,0,0,0,384.59,314.61Z" style="fill:#af6152"></path><path d="M384.47,317.69c-.36.09-.69-.15-1-.3s-.57-.39-.85-.6l-.8-.61c-.28-.2-.54-.43-.8-.58-.48-.34-1.06-.08-1.66.23a19.6,19.6,0,0,0-1.74,1.05,7,7,0,0,1,1.52-1.41,3.29,3.29,0,0,1,1-.5,1.44,1.44,0,0,1,1.18.17,6.38,6.38,0,0,1,.84.64,10.21,10.21,0,0,1,.77.69l.73.71A1.55,1.55,0,0,0,384.47,317.69Z" style="fill:#af6152"></path><path d="M387.24,313.89a1,1,0,0,1-.6,1.37c-.66.18.07.72.64,1.33a5.33,5.33,0,0,0,.16-2.25A1.82,1.82,0,0,0,387.24,313.89Z" style="fill:#af6152;opacity:0.5"></path><path d="M380.45,320a2.26,2.26,0,0,0,1.41-.26,2.65,2.65,0,0,1-1.53-.15,1.68,1.68,0,0,1-.5-1.38,1.11,1.11,0,0,0-.21.69C379.62,319.24,380.05,320,380.45,320Z" style="fill:#874c4c"></path><path d="M376.92,337.77s.68,1.4,4.37,8.44c1.77,3.38,5.86,11.58,10.59,15.3,6.19,4.86,10.83,3.65,13,1.74s2.6-10.68-.16-15.61c-2.3-4.1-3.8-4.78-8.62-9.46s-9.65-9.26-9.65-9.26C385.23,335.36,376.92,337.77,376.92,337.77Z" style="fill:#16A085"></path></g><g id="freepik--Top--inject-3"><path d="M317.62,379.43c1.94,19.67,6.4,32.48,15.41,40l38.14-30.58-.49-19.75Z" style="fill:#455a64"></path><g id="freepik--Chest--inject-3"><path id="freepik--chest--inject-3" d="M321.5,322.06s10-5,18.39-6.38a83.44,83.44,0,0,1,21.72-.94s6.41.85,9.56,14.54c2.21,9.6.32,19.39.27,28.34.47,4,1.34,6.22,2.25,10.78.08,2-1.74,4.14-4.2,5.91-4.26,3.07-11.7,5.63-20.95,9.4-9.48,6.9-19.67,11.32-28.55,11.7-3.32-13.47-4.14-31.58-4.59-38.18C313.91,335.43,318.1,330.45,321.5,322.06Z" style="fill:#16A085"></path><path id="freepik--chest--inject-3" d="M321.5,322.06s10-5,18.39-6.38a83.44,83.44,0,0,1,21.72-.94s6.41.85,9.56,14.54c2.21,9.6.32,19.39.27,28.34.47,4,1.34,6.22,2.25,10.78.08,2-1.74,4.14-4.2,5.91-4.26,3.07-11.7,5.63-20.95,9.4-9.48,6.9-19.67,11.32-28.55,11.7-3.32-13.47-4.14-31.58-4.59-38.18C313.91,335.43,318.1,330.45,321.5,322.06Z" style="opacity:0.30000000000000004"></path></g><g id="freepik--Head--inject-3"><path d="M367.28,277.16c-2.5-5.09-7.88-9.54-16.24-9.78-10.19-.3-16.88,3.08-17.41,9.54h0a6.11,6.11,0,0,0-4.06,3.57c-1.27,3.16-1.19,6.12.94,14.58a61.66,61.66,0,0,0,3.74,11,4.78,4.78,0,0,0,2.57,2.43l.43-7.4,0-3s3.64,0,4.51-10.11c.12-1.37.35-2.47.37-3.4l25.24,3.76S369.77,282.25,367.28,277.16Z" style="fill:#263238"></path><path d="M330.32,302.68c2.77,1.73,5.67-.7,5.67-.7s-.23,7-.49,10.83-1.43,4.27-2.67,4.66a23.11,23.11,0,0,0,8.12,5.25c7.86,2.67,15.91,0,12.07-5.27l.33-4.11a23.65,23.65,0,0,0,6.26-.1c4.12-.84,5.95-2.82,6.88-6.72,1.29-5.38,1.75-10.15.74-13.27a5.64,5.64,0,0,1-.25-1.78,50.38,50.38,0,0,0,0-7,7.69,7.69,0,0,0-2.42-4.77c-4.2-3.74-10.27.72-16.12,2.46-2.42.72-7.16.21-8.6-.62,1.79,2.35,1.05,6.36-.54,11.74-.54,1.86-1.23,2.19-1.64,2.14-1.64-.17-2.08-2.25-3-3.42a4.28,4.28,0,0,0-6.76,1A7,7,0,0,0,330.32,302.68Z" style="fill:#c8856a"></path><path d="M353.35,313.34c-5.5-.76-9.33-2-11.32-3.84a19.7,19.7,0,0,1-4.24-6.27s.4,5.28,3.24,7.95,6.34,4.29,12.11,4.76Z" style="fill:#af6152"></path><path d="M355.41,289.44l.49,10.68,5.75-1.6A24.89,24.89,0,0,0,355.41,289.44Z" style="fill:#af6152"></path><path d="M350.6,287.31,347,289.17a2,2,0,0,1,.81-2.73A2.14,2.14,0,0,1,350.6,287.31Z" style="fill:#263238"></path><path d="M361,286.73l4,.85a2,2,0,0,0-1.49-2.42A2.14,2.14,0,0,0,361,286.73Z" style="fill:#263238"></path><path d="M348.28,293.06c0,.89,1.17,1.61,2.46,1.33a2,2,0,0,0,1.74-2.2,2.78,2.78,0,0,1-2,1.28A2.9,2.9,0,0,1,348.28,293.06Z" style="fill:#263238"></path><path d="M360.64,291.53c-.19.88.7,1.87,2,1.94a2,2,0,0,0,2.27-1.66,2.79,2.79,0,0,1-2.24.71A2.92,2.92,0,0,1,360.64,291.53Z" style="fill:#263238"></path></g><path d="M321.46,322.08c-8.9,3.93-10.57,11.51-7.78,23.33,2.32,9.83,7.05,25.63,10.76,32.48,3,5.56,5.91,7.42,7.32,7.85l9.92-23.47-5.35-20.88S331.61,322.69,321.46,322.08Z" style="fill:#16A085"></path><path d="M339.63,354.27l-1.37-5.35c-2.78,3.49-5.85,7.92-7.52,10.29-2.21,3.14-3.11,10-2.76,13.85C328.23,375.77,335.41,362.41,339.63,354.27Z" style="opacity:0.15"></path><path d="M376,308.33a4.41,4.41,0,0,0-1.12-1.07l-.2-.13a7.58,7.58,0,0,0-2.5-.93,16.4,16.4,0,0,0-14,4.87,7.21,7.21,0,0,0-1.39,2.28,1.55,1.55,0,0,0-.08.23,4.37,4.37,0,0,0-.22,1.52c0,4.17,4.15,10.16,8,12l.11.06.18.08.39.16.13.05.3.1.55.13h0a11.94,11.94,0,0,0,10.18-3.54,5,5,0,0,0,.34-.43l.19-.29.06-.09.22-.38a.8.8,0,0,1,.08-.16l.06-.13C379.05,318.86,378.6,311.6,376,308.33Z" style="fill:#fff"></path><path d="M370,306.5a11,11,0,0,1,2.11.19,6.9,6.9,0,0,1,2.37.88l.16.1a3.82,3.82,0,0,1,1,1c2.39,3,3,10,1.15,13.89l0,.06,0,.07-.06.12-.19.35,0,0h0l-.05.07-.16.24a3.9,3.9,0,0,1-.31.4,11.52,11.52,0,0,1-8.21,3.51,8.26,8.26,0,0,1-1.52-.14l-.49-.12-.28-.09-.06,0-.06,0-.36-.15-.16-.07,0,0h0l-.21.44.15-.47c-3.81-1.89-7.69-7.75-7.69-11.63a4,4,0,0,1,.19-1.35,2.07,2.07,0,0,1,.08-.21,7,7,0,0,1,1.3-2.13A16.08,16.08,0,0,1,370,306.5m0-.5c-4.27,0-9.19,2-11.81,5.07a7.21,7.21,0,0,0-1.39,2.28,1.55,1.55,0,0,0-.08.23,4.37,4.37,0,0,0-.22,1.52c0,4.17,4.15,10.16,8,12l.11.06.18.08.39.16.13.05.3.1.55.13h0a9.25,9.25,0,0,0,1.6.14,12.09,12.09,0,0,0,8.58-3.68,5,5,0,0,0,.34-.43l.19-.29.06-.09.22-.38a.8.8,0,0,1,.08-.16l.06-.13c1.81-3.85,1.36-11.11-1.22-14.38a4.41,4.41,0,0,0-1.12-1.07l-.2-.13a7.58,7.58,0,0,0-2.5-.93A12.27,12.27,0,0,0,370,306Z" style="fill:#e0e0e0"></path><path d="M374.39,320.72c2.85.26,3.47,2.06,1.39,4a13.12,13.12,0,0,1-8.93,3.1c-2.85-.25-3.48-2-1.4-4A13.17,13.17,0,0,1,374.39,320.72Z" style="fill:#ebebeb"></path><path d="M374.05,321.12c2.57.2,3.11,1.78,1.22,3.53a12.24,12.24,0,0,1-8.08,2.8c-2.57-.2-3.12-1.78-1.22-3.53A12.24,12.24,0,0,1,374.05,321.12Z" style="fill:#e0e0e0"></path><path d="M374.05,321.12c2.57.2,3.11,1.78,1.22,3.53a12.24,12.24,0,0,1-8.08,2.8c-2.57-.2-3.12-1.78-1.22-3.53A12.24,12.24,0,0,1,374.05,321.12Z" style="opacity:0.1"></path><path d="M374.05,321.12a12.24,12.24,0,0,0-8.08,2.8,1.65,1.65,0,1,0,1.08,3.12,12.22,12.22,0,0,0,8.08-2.81,1.65,1.65,0,1,0-1.08-3.11Z" style="fill:#e0e0e0"></path><path d="M353,319.49c-.24-1.66-.85-3.32-.29-4.64.85-2,.89-3.38,1.53-4s1.94.37,2.15,1.38Z" style="fill:#af6152"></path><path d="M353.84,317.33a59.3,59.3,0,0,1,2.86-5.63,19.06,19.06,0,0,1,3.81-3.73c1.46-1.21,2.86-2.89,3.48-2.25a2,2,0,0,1,.32,2.47c-.54.9-2.06,2.88-2.06,2.88s3-2.16,4.16-3.16,2-1.82,2.67-1.25.53,1.6-.41,2.75a45.07,45.07,0,0,1-3.09,3.4c-.9.89-1.63,1.78-1.63,1.78s2.86-1.95,3.83-2.79,2.14-1.92,2.55-1.53c.58.55.68,1.88-.58,3.37-1.93,2.27-3.82,4.15-4.7,5.22s-1.86,2.4-1.42,2.7l2.11-2c1.22-1.18,3-3,3.83-3.26s2,.1,1.11,1.71a32,32,0,0,1-4,5.34c-1.75,2-2.15,2.34-2.29,3.32s.62,5.07.46,6.93c-.19,2.2-1,2.6-2.25,4.57-1,1.62-4,8.36-4,8.36-6.27-2-8.41-5.29-8-9.27,0,0,2.14-3.78,2.42-6.66.36-3.78-.24-7.71-.22-9.46A7.87,7.87,0,0,1,353.84,317.33Z" style="fill:#c8856a"></path><path d="M353,330.59a60.3,60.3,0,0,0-.34-8.91,7.82,7.82,0,0,1,.17-2.26,16.09,16.09,0,0,1,.83-2.1c.57-1.38,1.25-2.71,1.94-4,.37-.66.7-1.31,1.12-2a11.49,11.49,0,0,1,1.54-1.65c1.11-1,2.3-1.9,3.38-2.92.28-.24.56-.49.86-.73a2.72,2.72,0,0,1,1-.55.62.62,0,0,1,.58.24,3.14,3.14,0,0,1,.33.48,2,2,0,0,1,.22,1.13,2.31,2.31,0,0,1-.42,1.05c-.21.32-.42.62-.65.92-.44.6-.89,1.19-1.36,1.77.45-.6.88-1.2,1.3-1.82a4.5,4.5,0,0,0,1-1.94,1.87,1.87,0,0,0-.22-1c-.19-.28-.41-.67-.72-.6a2.49,2.49,0,0,0-.91.53c-.28.23-.56.48-.83.74-2.13,2.07-4.84,3.63-5.92,6.49-.7,1.31-1.38,2.63-2,4a15.44,15.44,0,0,0-.83,2.05,7.91,7.91,0,0,0-.19,2.18c.06,1.48.2,3,.24,4.46A33.19,33.19,0,0,1,353,330.59Z" style="fill:#874c4c"></path><path d="M362.25,311.07c-.56.54-1.17,1-1.69,1.56a12.48,12.48,0,0,0-1.39,1.8c-.45.63-.9,1.25-1.37,1.86a7.12,7.12,0,0,1-.78.88,1.84,1.84,0,0,1-1.07.46c.78-.2,1.17-.89,1.6-1.53s.85-1.28,1.29-1.91a9.08,9.08,0,0,1,1.5-1.79A13.62,13.62,0,0,1,362.25,311.07Z" style="fill:#af6152"></path><path d="M364,314.59c-.49.48-1.05.9-1.56,1.35a4.5,4.5,0,0,0-.69.69c-.18.27-.37.57-.55.86-.37.58-.74,1.16-1.14,1.72a12.5,12.5,0,0,1-1.27,1.63c.35-.59.66-1.2,1-1.8s.7-1.18,1.06-1.77c.19-.29.36-.57.58-.87a4.13,4.13,0,0,1,.81-.71C362.77,315.29,363.36,314.94,364,314.59Z" style="fill:#af6152"></path><path d="M365.05,318.86l.31-.36h0a21,21,0,0,0-3.05,3.24c-.46.67-.48,1-.29,1.11s.82-.56.82-.56l.79-.72C363.19,321.25,364.18,319.93,365.05,318.86Z" style="fill:#af6152;opacity:0.5"></path><path d="M363.63,321.56c-.44.49-.88,1-1.3,1.47-.22.24-.43.5-.62.75s-.38.53-.6.78c.12-.3.27-.6.42-.9a7,7,0,0,1,.6-.8A5.84,5.84,0,0,1,363.63,321.56Z" style="fill:#af6152"></path><path d="M362.54,314.31a1.6,1.6,0,0,0-.1-.23c0-.07-.1-.13-.15-.2a2.28,2.28,0,0,0-.42-.4,2.35,2.35,0,0,0-.54-.3,1,1,0,0,0-.25-.07c-.08,0-.15,0-.15.1a.22.22,0,0,0,.14.18h0l.08,0,.13.07.16.09a2.42,2.42,0,0,1,.31.25,1.59,1.59,0,0,1,.13.13l.06.07h0l0,0a2.63,2.63,0,0,0,.29.37l.07.09c.07.11.24.1.22-.06A.86.86,0,0,0,362.54,314.31Z" style="fill:#af6152"></path><path d="M361.46,314.36s-.06-.06-.09-.09l-.06-.06-.07,0-.14-.12-.26-.27s-.09-.08-.14,0a.14.14,0,0,0,0,.17,2.22,2.22,0,0,0,.28.33l.19.16a.6.6,0,0,0,.13.09s.07.05.1,0S361.49,314.42,361.46,314.36Z" style="fill:#af6152"></path><path d="M358.58,312.13a.18.18,0,0,0,0-.1.44.44,0,0,0-.12-.18,1.37,1.37,0,0,0-.18-.16,1.8,1.8,0,0,0-.35-.21,1.36,1.36,0,0,0-.43-.14.5.5,0,0,0-.21,0c-.06,0-.07.09-.06.15a.2.2,0,0,0,.18.15l.17.05.15.05.17.09,0,0h0l.07.05.14.11h0l.06.06.1.09,0,0s0,0,0,0,.07.06.1.08l.09.05a.06.06,0,0,0,.08,0v-.06h0Z" style="fill:#af6152"></path><path d="M358,312.53c0-.06-.12-.1-.17-.12l-.1,0-.15-.05-.14-.05h-.06l-.1,0h-.07a.07.07,0,0,0-.06.09.16.16,0,0,0,.06.13,1.78,1.78,0,0,0,.4.17l.15.05.07,0H358a.1.1,0,0,0,0-.07v0A.19.19,0,0,0,358,312.53Z" style="fill:#af6152"></path><path d="M363.71,317.32a3.32,3.32,0,0,1-.76-.47c-.25-.21-.41-.48-.65-.7,0,0-.09,0-.09.05a.76.76,0,0,0,.23.56,2.22,2.22,0,0,0,.37.38,2,2,0,0,0,.9.48.11.11,0,0,0,.14-.11A.21.21,0,0,0,363.71,317.32Z" style="fill:#af6152"></path><path d="M362.63,317.75l-.1-.07-.24-.21c-.11-.1-.23-.2-.33-.31s-.13-.08-.17,0,0,.15,0,.2a5,5,0,0,0,.38.42l.18.16.1.08.07.06a1,1,0,0,0,.16.06c.09,0,.11-.08.09-.14A.41.41,0,0,0,362.63,317.75Z" style="fill:#af6152"></path><path d="M365.7,322.43a2.11,2.11,0,0,0-.35-.38,2.15,2.15,0,0,0-.46-.33,1.17,1.17,0,0,0-.24-.09c-.13,0-.14.14,0,.21a1.59,1.59,0,0,0,.21.15,1.88,1.88,0,0,1,.18.12l.07.06h0l0,0,.14.13.06.07s0,0,0,0,0,0,0,0l.11.15a2.26,2.26,0,0,0,.26.37s.16.09.18,0S365.81,322.58,365.7,322.43Z" style="fill:#af6152"></path><path d="M365.09,322.79a.41.41,0,0,0-.16-.16l-.07-.05-.17-.11-.31-.19-.09,0a.1.1,0,0,0-.06.05.19.19,0,0,0,.07.2l.32.21.16.1.07.05.1.05.08,0C365.1,322.94,365.11,322.84,365.09,322.79Z" style="fill:#af6152"></path><path d="M350.86,336.39,333.6,360c-1.49,2.05-5.92,8-5.81,16.37.07,5.25,1.09,11.58,9.35,9.18,6.06-1.76,8.56-4,12.17-10.44,2.16-3.86,4.87-11.87,6.5-16.59,2.82-8.19,4.42-13.55,4.42-13.55C357.72,345.5,351.26,340.48,350.86,336.39Z" style="fill:#16A085"></path><path d="M351.59,302.84a2.79,2.79,0,0,0,5.53.75Z" style="fill:#874c4c"></path><path d="M354,306a2.77,2.77,0,0,0,1.73-.34,4.49,4.49,0,0,0-4.07-1.84A2.77,2.77,0,0,0,354,306Z" style="fill:#f28f8f"></path></g><g id="freepik--Bottom--inject-3"><path d="M474,476.14a3.76,3.76,0,0,1-1.09,2.35,9.88,9.88,0,0,1-5.61,2.49,20,20,0,0,1-5.92.25,11,11,0,0,1-5.46-2.17,24.36,24.36,0,0,1-3.21-3.44,11.87,11.87,0,0,0-2.69-2.46,12.45,12.45,0,0,0-1.46-.64c-.57-.28-1.13-.58-1.71-.84-1.45-.66-3.63-1.51-4.56-2.81-1.1-1.51-.83-2.88-1-5.46-.49-1.64-.79-3-.79-3-2.55-3.07-9.82-10.85-12.32-13.54L441.4,435.8c4.48,7.54,7.12,12.76,10.75,18.23,2.12,3.19,3.35,4.84,4.47,6.37a44.05,44.05,0,0,0,5.16,5.76,26.63,26.63,0,0,0,3.41,2.86,24.9,24.9,0,0,0,2.82,1.77c1.62.92,2.09.95,3.6,1.82A4.26,4.26,0,0,1,474,476.14Z" style="fill:#c8856a"></path><path d="M440.45,470.79a5.64,5.64,0,0,0,.49,1.8c1,1.71,5,2.9,6.5,3.42a8.55,8.55,0,0,1,4.9,4,14.8,14.8,0,0,0,8.38,5.77,23.45,23.45,0,0,0,13.94-.39c5.62-1.79,5.64-5.25,5.64-5.25s-.12-3.23-1.62-3.55S440.45,470.79,440.45,470.79Z" style="fill:#263238"></path><path d="M440.47,460.42c-.64.12-.56.54-.58.94a12.31,12.31,0,0,1,0,3.63,9.48,9.48,0,0,0,.54,5.8c2,2.94,8.78,3.32,11.51,6.23s5.41,6.62,13.14,7.13,13.14-2.65,14.25-5-.43-4.19-5.6-6.16c-5.49-2.09-13.33-9.44-13.33-9.45-.19-.16-.36-.34-.53-.51-.86-.86-2.78-2.57-3.05-3.87a7.44,7.44,0,0,0-.29-1.41,1.37,1.37,0,0,0-1.07-.67,13.31,13.31,0,0,0-6.1,1.79A7.21,7.21,0,0,0,447,460.7l-.14.19a2.28,2.28,0,0,0-.46,1.37,5.37,5.37,0,0,0,1,2.18,4.6,4.6,0,0,1-1.83-1.29,2.8,2.8,0,0,0-1.1-.87c-1.4-.37-2.86-.35-3.33-.82A3.1,3.1,0,0,1,440.47,460.42Z" style="fill:#37474f"></path><path d="M460,483a9.66,9.66,0,0,1,4.5-8.92c5.3-3.65,9-2.24,10.9-1.21,2.27,1.21,5.64,3.93,4.14,6.43-1.62,2.7-4.58,4.27-10.37,5.1S460,483,460,483Z" style="fill:#fafafa"></path><path d="M449.87,466.4a.63.63,0,0,0,.48-.34c.53-1,4.1-4.88,8.24-4.3.14-.49-.39-.86-.91-1-4.37-.33-7.86,3.58-8.5,4.77a.61.61,0,0,0,.29.84A.7.7,0,0,0,449.87,466.4Z" style="fill:#fafafa"></path><path d="M461.4,464.46c.12-.37-.7-1-1.14-1-4.28,0-7.43,3.68-8,4.82a.61.61,0,0,0,.29.84.63.63,0,0,0,.4.06.65.65,0,0,0,.48-.34C453.91,467.84,457.41,464.14,461.4,464.46Z" style="fill:#fafafa"></path><path d="M468.52,470.1c.11-.29-.65-.8-1.56-1.1-4.4-.54-8,3.52-8.66,4.69a.61.61,0,0,0,.28.85.73.73,0,0,0,.41.06.65.65,0,0,0,.48-.34C460,473.22,464.11,468.93,468.52,470.1Z" style="fill:#fafafa"></path><path d="M456,471.86a.66.66,0,0,0,.48-.33c.52-1,4.14-4.8,8.22-4.32.1-.4-.64-.93-1.29-1-4.37,0-7.49,3.66-8.1,4.8a.62.62,0,0,0,.28.85A.65.65,0,0,0,456,471.86Z" style="fill:#fafafa"></path><path d="M342.39,387.65C345.75,406,354,414,369.13,419.22c16.9,5.83,42.56,10.39,42.56,10.39a41.29,41.29,0,0,0,6.59,9.3c8.26,8.65,9.45,11,10.93,12s2.63,1.31,3.31,1l-1.28-1.22c-.1-3.6,10.06-11.57,13-10.33l1.05,1.75a2.47,2.47,0,0,0-.14-2.66c-1-1.93-6.81-11.12-16.54-26.19-2.57-4-3.77-5.26-14.09-13-12.47-9.37-33.25-22.05-33.25-22.05Z" style="fill:#455a64"></path><path d="M402.92,427.9c.23-4.56,1.56-23.95,1.56-34.69-4.71-3.2-9.13-6.07-13.23-8.68L369.68,390l-14.76,21.53a43.35,43.35,0,0,0,14.21,7.65C379.79,422.9,393.92,426.06,402.92,427.9Z" style="fill:#37474f"></path><path d="M431.24,450.75c-.45-4.69,8.12-11.91,13-10.33l3.11,5.45s-2.81-.16-6.52,2.43a14.19,14.19,0,0,0-5,7Z" style="fill:#263238"></path><path d="M411.69,429.61a25.75,25.75,0,0,1-1.39-7.15,23,23,0,0,0-.08,6.88Z" style="opacity:0.2"></path><path d="M417,456.64a3.59,3.59,0,0,1-1.48,2.12,9.72,9.72,0,0,1-5.95,1.5,19.69,19.69,0,0,1-5.87-.77,11,11,0,0,1-5-3.07,24,24,0,0,1-2.57-3.94,11.92,11.92,0,0,0-2.24-2.89,12.62,12.62,0,0,0-1.32-.88c-.52-.37-1-.76-1.54-1.12a16.8,16.8,0,0,1-4-3.54c-1.59-2.29-.7-4.6-.54-7.18,0-.63.09-1.26.14-1.89l-.09-1c-.48-6.5-3.66-20.28-4.37-24l19.62-.8c-.43,10.88-.92,18-1.07,22.17a16.68,16.68,0,0,0,.75,6.5,16.86,16.86,0,0,0,3.18,6.09,44,44,0,0,0,3.91,4.28,14.35,14.35,0,0,0,2.19,1.61,46.47,46.47,0,0,1,4.54,2.95A4.24,4.24,0,0,1,417,456.64Z" style="fill:#c8856a"></path><path d="M384.87,445.62a5.53,5.53,0,0,0,.18,1.86c.69,1.86,4.41,3.72,5.81,4.48a8.52,8.52,0,0,1,4.14,4.78c1.32,3.16,4.08,5.5,7.27,7.13a23.45,23.45,0,0,0,13.8,2c5.85-.8,6.46-4.2,6.46-4.2s.43-3.21-1-3.77S384.87,445.62,384.87,445.62Z" style="fill:#263238"></path><path d="M386.49,433.91c-.65,0-.85.6-.83,1.27a11.35,11.35,0,0,1-.46,4.59c-.41,1.64-1,3.77-.33,5.85,1.49,3.24,8.07,4.78,10.27,8.11s4.19,7.46,11.73,9.28,13.4-.36,14.89-2.47.29-4.19-4.47-7c-5.05-3-11.51-11.59-11.51-11.6a6.46,6.46,0,0,1-.44-.59c-.69-1-2.3-3-2.33-4.34a7.58,7.58,0,0,0-.05-1.43,1.36,1.36,0,0,0-.94-.85,13.23,13.23,0,0,0-6.31.72,7.12,7.12,0,0,0-2.66,1.38l-.17.16a2.28,2.28,0,0,0-.69,1.27,5.5,5.5,0,0,0,.61,2.32,4.46,4.46,0,0,1-1.58-1.59,12.65,12.65,0,0,1-.55-1.18c-1-2.39-3.64-1.87-4.11-3.12Z" style="fill:#37474f"></path><path d="M402,461a9.66,9.66,0,0,1,6-8c5.85-2.7,9.26-.67,11,.67,2,1.58,4.88,4.84,3,7.05-2.06,2.38-5.24,3.42-11.09,3.24S402,461,402,461Z" style="fill:#fafafa"></path><path d="M394.9,442.91a.66.66,0,0,0,.54-.25c.68-.88,4.87-4.11,8.84-2.82.23-.46-.23-.92-.72-1.18-4.25-1.07-8.35,2.18-9.18,3.24a.61.61,0,0,0,.13.88A.65.65,0,0,0,394.9,442.91Z" style="fill:#fafafa"></path><path d="M406.59,443c.18-.33-.52-1.07-.95-1.22-4.21-.71-7.94,2.35-8.74,3.37a.62.62,0,0,0,.14.88.69.69,0,0,0,.39.12.63.63,0,0,0,.53-.25C398.63,445,402.72,442,406.59,443Z" style="fill:#fafafa"></path><path d="M412.64,449.75c.16-.26-.51-.9-1.34-1.35-4.25-1.29-8.53,2.1-9.35,3.14a.62.62,0,0,0,.14.88.63.63,0,0,0,.39.13.66.66,0,0,0,.53-.25C403.74,451.37,408.49,447.84,412.64,449.75Z" style="fill:#fafafa"></path><path d="M400,449.34a.69.69,0,0,0,.54-.25c.68-.87,4.9-4,8.84-2.85.16-.37-.48-1-1.1-1.25-4.3-.74-8,2.32-8.8,3.34a.61.61,0,0,0,.13.88A.65.65,0,0,0,400,449.34Z" style="fill:#fafafa"></path><path d="M383.09,414.83l1.55,7.63s2.68,1.89,8.83,1.52,7.87-2.48,7.87-2.48l.57-8.5Z" style="fill:#263238"></path><path d="M327.05,411.81c6.84,13.88,24.09,16.26,35,11.61,19.27-8.24,37.7-53.51,36.76-64.35s-12-14.28-31.33,1c-10.39,8.21-17.05,15.94-25.05,27.57-3.24,1.09-14.4,7-17.63,14.4A27.73,27.73,0,0,0,327.05,411.81Z" style="fill:#455a64"></path><path d="M342.39,387.65l-3,1.16c-4.12,4.81-5.91,10.05-3.85,18.79C335.31,403.49,336.85,392.43,342.39,387.65Z" style="fill:#37474f"></path><path d="M393,350.35c5.65,2.15,11.19,7.76,10.63,28.31-.4,14.77-.81,28.47-1.11,34-.08,1.62-.95,2.75-3,3.54a24.1,24.1,0,0,1-14.42.57,4,4,0,0,1-2.86-3c-.74-3.3-1.86-9.94-2.87-17.38-1.6-11.79-2.52-22.24.47-30.64C383.32,356.08,393,350.35,393,350.35Z" style="fill:#455a64"></path><path d="M379.16,378.73c-1.25,4.91-2.28,4.59-1.71,17.29.23,5.08.7,10,.77,12.48.81-1.12,1.66-2.36,2.44-3.54C379.77,399.62,377.62,385.09,379.16,378.73Z" style="fill:#37474f"></path></g></g></g></svg>